<mxfile host="app.diagrams.net" modified="2024-05-02T19:21:27.925Z" agent="Mozilla/5.0 (Windows NT 10.0; Win64; x64) AppleWebKit/537.36 (KHTML, like Gecko) Chrome/124.0.0.0 Safari/537.36" etag="8nsuDgdzCWZSKZ061Kgm" version="24.3.1" type="github">
  <diagram id="C5RBs43oDa-KdzZeNtuy" name="Page-1">
    <mxGraphModel dx="3537" dy="622" grid="1" gridSize="10" guides="1" tooltips="1" connect="1" arrows="0" fold="1" page="1" pageScale="1" pageWidth="827" pageHeight="1169" math="0" shadow="0">
      <root>
        <mxCell id="WIyWlLk6GJQsqaUBKTNV-0" />
        <mxCell id="WIyWlLk6GJQsqaUBKTNV-1" parent="WIyWlLk6GJQsqaUBKTNV-0" />
        <mxCell id="VRcdZGzrIykz-bCl830E-0" value="Consulta" style="rounded=0;whiteSpace=wrap;html=1;" vertex="1" parent="WIyWlLk6GJQsqaUBKTNV-1">
          <mxGeometry x="390" y="580" width="120" height="40" as="geometry" />
        </mxCell>
        <mxCell id="VRcdZGzrIykz-bCl830E-1" value="Médico" style="rounded=0;whiteSpace=wrap;html=1;" vertex="1" parent="WIyWlLk6GJQsqaUBKTNV-1">
          <mxGeometry x="390" y="335" width="120" height="40" as="geometry" />
        </mxCell>
        <mxCell id="VRcdZGzrIykz-bCl830E-2" value="Receita" style="rounded=0;whiteSpace=wrap;html=1;" vertex="1" parent="WIyWlLk6GJQsqaUBKTNV-1">
          <mxGeometry x="-10" y="580" width="120" height="40" as="geometry" />
        </mxCell>
        <mxCell id="VRcdZGzrIykz-bCl830E-3" value="Paciente" style="rounded=0;whiteSpace=wrap;html=1;" vertex="1" parent="WIyWlLk6GJQsqaUBKTNV-1">
          <mxGeometry x="390" y="825" width="120" height="40" as="geometry" />
        </mxCell>
        <mxCell id="VRcdZGzrIykz-bCl830E-4" value="Convênio" style="rounded=0;whiteSpace=wrap;html=1;" vertex="1" parent="WIyWlLk6GJQsqaUBKTNV-1">
          <mxGeometry x="790" y="825" width="120" height="40" as="geometry" />
        </mxCell>
        <mxCell id="VRcdZGzrIykz-bCl830E-5" value="Especialização" style="rounded=0;whiteSpace=wrap;html=1;" vertex="1" parent="WIyWlLk6GJQsqaUBKTNV-1">
          <mxGeometry x="790" y="335" width="120" height="40" as="geometry" />
        </mxCell>
        <mxCell id="VRcdZGzrIykz-bCl830E-7" value="Atende" style="rhombus;whiteSpace=wrap;html=1;" vertex="1" parent="WIyWlLk6GJQsqaUBKTNV-1">
          <mxGeometry x="390" y="445" width="120" height="70" as="geometry" />
        </mxCell>
        <mxCell id="VRcdZGzrIykz-bCl830E-9" value="Fornece" style="rhombus;whiteSpace=wrap;html=1;" vertex="1" parent="WIyWlLk6GJQsqaUBKTNV-1">
          <mxGeometry x="190" y="565" width="120" height="70" as="geometry" />
        </mxCell>
        <mxCell id="VRcdZGzrIykz-bCl830E-10" value="Procura" style="rhombus;whiteSpace=wrap;html=1;" vertex="1" parent="WIyWlLk6GJQsqaUBKTNV-1">
          <mxGeometry x="390" y="685" width="120" height="70" as="geometry" />
        </mxCell>
        <mxCell id="VRcdZGzrIykz-bCl830E-11" value="Necessita" style="rhombus;whiteSpace=wrap;html=1;" vertex="1" parent="WIyWlLk6GJQsqaUBKTNV-1">
          <mxGeometry x="587" y="445" width="120" height="70" as="geometry" />
        </mxCell>
        <mxCell id="VRcdZGzrIykz-bCl830E-12" value="Possui" style="rhombus;whiteSpace=wrap;html=1;" vertex="1" parent="WIyWlLk6GJQsqaUBKTNV-1">
          <mxGeometry x="587" y="810" width="120" height="70" as="geometry" />
        </mxCell>
        <mxCell id="VRcdZGzrIykz-bCl830E-23" value="" style="endArrow=none;html=1;rounded=0;exitX=0;exitY=0.5;exitDx=0;exitDy=0;entryX=1;entryY=0.5;entryDx=0;entryDy=0;" edge="1" parent="WIyWlLk6GJQsqaUBKTNV-1" source="VRcdZGzrIykz-bCl830E-4" target="VRcdZGzrIykz-bCl830E-12">
          <mxGeometry width="50" height="50" relative="1" as="geometry">
            <mxPoint x="400" y="645" as="sourcePoint" />
            <mxPoint x="450" y="595" as="targetPoint" />
          </mxGeometry>
        </mxCell>
        <mxCell id="VRcdZGzrIykz-bCl830E-24" value="" style="endArrow=none;html=1;rounded=0;entryX=0;entryY=0.5;entryDx=0;entryDy=0;" edge="1" parent="WIyWlLk6GJQsqaUBKTNV-1" target="VRcdZGzrIykz-bCl830E-12">
          <mxGeometry width="50" height="50" relative="1" as="geometry">
            <mxPoint x="510" y="844.5" as="sourcePoint" />
            <mxPoint x="590" y="844.5" as="targetPoint" />
          </mxGeometry>
        </mxCell>
        <mxCell id="VRcdZGzrIykz-bCl830E-27" value="" style="endArrow=none;html=1;rounded=0;entryX=0.5;entryY=1;entryDx=0;entryDy=0;exitX=0.5;exitY=0;exitDx=0;exitDy=0;" edge="1" parent="WIyWlLk6GJQsqaUBKTNV-1" source="VRcdZGzrIykz-bCl830E-3" target="VRcdZGzrIykz-bCl830E-10">
          <mxGeometry width="50" height="50" relative="1" as="geometry">
            <mxPoint x="520" y="855" as="sourcePoint" />
            <mxPoint x="600" y="855" as="targetPoint" />
          </mxGeometry>
        </mxCell>
        <mxCell id="VRcdZGzrIykz-bCl830E-28" value="" style="endArrow=none;html=1;rounded=0;entryX=0.5;entryY=1;entryDx=0;entryDy=0;exitX=0.5;exitY=0;exitDx=0;exitDy=0;" edge="1" parent="WIyWlLk6GJQsqaUBKTNV-1" source="VRcdZGzrIykz-bCl830E-10" target="VRcdZGzrIykz-bCl830E-0">
          <mxGeometry width="50" height="50" relative="1" as="geometry">
            <mxPoint x="460" y="835" as="sourcePoint" />
            <mxPoint x="460" y="765" as="targetPoint" />
          </mxGeometry>
        </mxCell>
        <mxCell id="VRcdZGzrIykz-bCl830E-29" value="" style="endArrow=none;html=1;rounded=0;entryX=0.5;entryY=1;entryDx=0;entryDy=0;exitX=0.5;exitY=0;exitDx=0;exitDy=0;" edge="1" parent="WIyWlLk6GJQsqaUBKTNV-1">
          <mxGeometry width="50" height="50" relative="1" as="geometry">
            <mxPoint x="449.47" y="580" as="sourcePoint" />
            <mxPoint x="449.47" y="515" as="targetPoint" />
          </mxGeometry>
        </mxCell>
        <mxCell id="VRcdZGzrIykz-bCl830E-30" value="" style="endArrow=none;html=1;rounded=0;entryX=0.5;entryY=1;entryDx=0;entryDy=0;exitX=0.5;exitY=0;exitDx=0;exitDy=0;" edge="1" parent="WIyWlLk6GJQsqaUBKTNV-1">
          <mxGeometry width="50" height="50" relative="1" as="geometry">
            <mxPoint x="449.47" y="445" as="sourcePoint" />
            <mxPoint x="449.47" y="375" as="targetPoint" />
          </mxGeometry>
        </mxCell>
        <mxCell id="VRcdZGzrIykz-bCl830E-32" value="" style="endArrow=none;html=1;rounded=0;entryX=0;entryY=1;entryDx=0;entryDy=0;exitX=1;exitY=0;exitDx=0;exitDy=0;" edge="1" parent="WIyWlLk6GJQsqaUBKTNV-1" source="VRcdZGzrIykz-bCl830E-0" target="VRcdZGzrIykz-bCl830E-11">
          <mxGeometry width="50" height="50" relative="1" as="geometry">
            <mxPoint x="510" y="599.47" as="sourcePoint" />
            <mxPoint x="590" y="599.47" as="targetPoint" />
          </mxGeometry>
        </mxCell>
        <mxCell id="VRcdZGzrIykz-bCl830E-35" value="" style="endArrow=none;html=1;rounded=0;exitX=1;exitY=0;exitDx=0;exitDy=0;entryX=0;entryY=1;entryDx=0;entryDy=0;" edge="1" parent="WIyWlLk6GJQsqaUBKTNV-1" source="VRcdZGzrIykz-bCl830E-11" target="VRcdZGzrIykz-bCl830E-5">
          <mxGeometry width="50" height="50" relative="1" as="geometry">
            <mxPoint x="710" y="599.47" as="sourcePoint" />
            <mxPoint x="790" y="599.47" as="targetPoint" />
          </mxGeometry>
        </mxCell>
        <mxCell id="VRcdZGzrIykz-bCl830E-37" value="" style="endArrow=none;html=1;rounded=0;entryX=0;entryY=0.5;entryDx=0;entryDy=0;exitX=1;exitY=0.5;exitDx=0;exitDy=0;" edge="1" parent="WIyWlLk6GJQsqaUBKTNV-1">
          <mxGeometry width="50" height="50" relative="1" as="geometry">
            <mxPoint x="310" y="599.57" as="sourcePoint" />
            <mxPoint x="390" y="599.57" as="targetPoint" />
          </mxGeometry>
        </mxCell>
        <mxCell id="VRcdZGzrIykz-bCl830E-38" value="" style="endArrow=none;html=1;rounded=0;exitX=1;exitY=0.5;exitDx=0;exitDy=0;entryX=0;entryY=0.5;entryDx=0;entryDy=0;" edge="1" parent="WIyWlLk6GJQsqaUBKTNV-1">
          <mxGeometry width="50" height="50" relative="1" as="geometry">
            <mxPoint x="110" y="599.5699999999999" as="sourcePoint" />
            <mxPoint x="190" y="599.5699999999999" as="targetPoint" />
          </mxGeometry>
        </mxCell>
        <mxCell id="VRcdZGzrIykz-bCl830E-39" value="Necessita" style="rhombus;whiteSpace=wrap;html=1;" vertex="1" parent="WIyWlLk6GJQsqaUBKTNV-1">
          <mxGeometry x="587" y="320" width="120" height="70" as="geometry" />
        </mxCell>
        <mxCell id="VRcdZGzrIykz-bCl830E-40" value="" style="endArrow=none;html=1;rounded=0;entryX=1;entryY=0.5;entryDx=0;entryDy=0;exitX=0;exitY=0.5;exitDx=0;exitDy=0;" edge="1" parent="WIyWlLk6GJQsqaUBKTNV-1" source="VRcdZGzrIykz-bCl830E-39" target="VRcdZGzrIykz-bCl830E-1">
          <mxGeometry width="50" height="50" relative="1" as="geometry">
            <mxPoint x="540" y="455" as="sourcePoint" />
            <mxPoint x="590" y="405" as="targetPoint" />
          </mxGeometry>
        </mxCell>
        <mxCell id="VRcdZGzrIykz-bCl830E-41" value="" style="endArrow=none;html=1;rounded=0;entryX=1;entryY=0.5;entryDx=0;entryDy=0;exitX=0;exitY=0.5;exitDx=0;exitDy=0;" edge="1" parent="WIyWlLk6GJQsqaUBKTNV-1" source="VRcdZGzrIykz-bCl830E-5" target="VRcdZGzrIykz-bCl830E-39">
          <mxGeometry width="50" height="50" relative="1" as="geometry">
            <mxPoint x="760" y="600" as="sourcePoint" />
            <mxPoint x="680" y="495" as="targetPoint" />
          </mxGeometry>
        </mxCell>
        <mxCell id="VRcdZGzrIykz-bCl830E-43" value="Recebe" style="rhombus;whiteSpace=wrap;html=1;" vertex="1" parent="WIyWlLk6GJQsqaUBKTNV-1">
          <mxGeometry x="190" y="685" width="120" height="70" as="geometry" />
        </mxCell>
        <mxCell id="VRcdZGzrIykz-bCl830E-44" value="" style="endArrow=none;html=1;rounded=0;exitX=0;exitY=0;exitDx=0;exitDy=0;entryX=1;entryY=1;entryDx=0;entryDy=0;" edge="1" parent="WIyWlLk6GJQsqaUBKTNV-1" source="VRcdZGzrIykz-bCl830E-43" target="VRcdZGzrIykz-bCl830E-2">
          <mxGeometry width="50" height="50" relative="1" as="geometry">
            <mxPoint x="180" y="713" as="sourcePoint" />
            <mxPoint x="50" y="620" as="targetPoint" />
          </mxGeometry>
        </mxCell>
        <mxCell id="VRcdZGzrIykz-bCl830E-45" value="" style="endArrow=none;html=1;rounded=0;entryX=1;entryY=1;entryDx=0;entryDy=0;exitX=0;exitY=0;exitDx=0;exitDy=0;" edge="1" parent="WIyWlLk6GJQsqaUBKTNV-1" source="VRcdZGzrIykz-bCl830E-3" target="VRcdZGzrIykz-bCl830E-43">
          <mxGeometry width="50" height="50" relative="1" as="geometry">
            <mxPoint x="400" y="825" as="sourcePoint" />
            <mxPoint x="230" y="742" as="targetPoint" />
          </mxGeometry>
        </mxCell>
        <mxCell id="VRcdZGzrIykz-bCl830E-52" value="Fornece" style="rhombus;whiteSpace=wrap;html=1;" vertex="1" parent="WIyWlLk6GJQsqaUBKTNV-1">
          <mxGeometry x="190" y="445" width="120" height="70" as="geometry" />
        </mxCell>
        <mxCell id="VRcdZGzrIykz-bCl830E-54" value="Necessita" style="rhombus;whiteSpace=wrap;html=1;" vertex="1" parent="WIyWlLk6GJQsqaUBKTNV-1">
          <mxGeometry x="587" y="685" width="120" height="70" as="geometry" />
        </mxCell>
        <mxCell id="VRcdZGzrIykz-bCl830E-55" value="" style="endArrow=none;html=1;rounded=0;entryX=1;entryY=1;entryDx=0;entryDy=0;exitX=0;exitY=0;exitDx=0;exitDy=0;" edge="1" parent="WIyWlLk6GJQsqaUBKTNV-1" source="VRcdZGzrIykz-bCl830E-54" target="VRcdZGzrIykz-bCl830E-0">
          <mxGeometry width="50" height="50" relative="1" as="geometry">
            <mxPoint x="400" y="685" as="sourcePoint" />
            <mxPoint x="450" y="635" as="targetPoint" />
          </mxGeometry>
        </mxCell>
        <mxCell id="VRcdZGzrIykz-bCl830E-56" value="" style="endArrow=none;html=1;rounded=0;entryX=1;entryY=1;entryDx=0;entryDy=0;exitX=0.5;exitY=0;exitDx=0;exitDy=0;" edge="1" parent="WIyWlLk6GJQsqaUBKTNV-1" source="VRcdZGzrIykz-bCl830E-4" target="VRcdZGzrIykz-bCl830E-54">
          <mxGeometry width="50" height="50" relative="1" as="geometry">
            <mxPoint x="797" y="810" as="sourcePoint" />
            <mxPoint x="690" y="727" as="targetPoint" />
          </mxGeometry>
        </mxCell>
        <mxCell id="VRcdZGzrIykz-bCl830E-57" value="" style="endArrow=none;html=1;rounded=0;entryX=0;entryY=1;entryDx=0;entryDy=0;exitX=1;exitY=0;exitDx=0;exitDy=0;" edge="1" parent="WIyWlLk6GJQsqaUBKTNV-1" source="VRcdZGzrIykz-bCl830E-2" target="VRcdZGzrIykz-bCl830E-52">
          <mxGeometry width="50" height="50" relative="1" as="geometry">
            <mxPoint x="400" y="585" as="sourcePoint" />
            <mxPoint x="450" y="535" as="targetPoint" />
          </mxGeometry>
        </mxCell>
        <mxCell id="VRcdZGzrIykz-bCl830E-58" value="" style="endArrow=none;html=1;rounded=0;entryX=0;entryY=1;entryDx=0;entryDy=0;exitX=1;exitY=0;exitDx=0;exitDy=0;" edge="1" parent="WIyWlLk6GJQsqaUBKTNV-1" source="VRcdZGzrIykz-bCl830E-52" target="VRcdZGzrIykz-bCl830E-1">
          <mxGeometry width="50" height="50" relative="1" as="geometry">
            <mxPoint x="400" y="585" as="sourcePoint" />
            <mxPoint x="450" y="535" as="targetPoint" />
          </mxGeometry>
        </mxCell>
        <mxCell id="VRcdZGzrIykz-bCl830E-61" value="" style="rounded=0;whiteSpace=wrap;html=1;" vertex="1" parent="WIyWlLk6GJQsqaUBKTNV-1">
          <mxGeometry x="-1070" y="580" width="1070" height="40" as="geometry" />
        </mxCell>
        <mxCell id="VRcdZGzrIykz-bCl830E-62" value="" style="triangle;whiteSpace=wrap;html=1;direction=west;" vertex="1" parent="WIyWlLk6GJQsqaUBKTNV-1">
          <mxGeometry x="-1400" y="375" width="337.5" height="450" as="geometry" />
        </mxCell>
        <mxCell id="VRcdZGzrIykz-bCl830E-69" value="" style="ellipse;whiteSpace=wrap;html=1;aspect=fixed;" vertex="1" parent="WIyWlLk6GJQsqaUBKTNV-1">
          <mxGeometry x="-1950" y="352" width="496" height="496" as="geometry" />
        </mxCell>
        <mxCell id="VRcdZGzrIykz-bCl830E-70" value="" style="ellipse;whiteSpace=wrap;html=1;aspect=fixed;" vertex="1" parent="WIyWlLk6GJQsqaUBKTNV-1">
          <mxGeometry x="-1885" y="417" width="366" height="366" as="geometry" />
        </mxCell>
        <mxCell id="VRcdZGzrIykz-bCl830E-71" value="" style="ellipse;whiteSpace=wrap;html=1;aspect=fixed;" vertex="1" parent="WIyWlLk6GJQsqaUBKTNV-1">
          <mxGeometry x="-1769.5" y="532.5" width="135" height="135" as="geometry" />
        </mxCell>
        <mxCell id="VRcdZGzrIykz-bCl830E-72" value="" style="ellipse;whiteSpace=wrap;html=1;aspect=fixed;fillColor=#FF0505;" vertex="1" parent="WIyWlLk6GJQsqaUBKTNV-1">
          <mxGeometry x="-1742" y="560" width="80" height="80" as="geometry" />
        </mxCell>
      </root>
    </mxGraphModel>
  </diagram>
</mxfile>
